Jump_normalized_precision_landing01_filtered_grf
version=1
nRows=25
nColumns=37
inDegrees=yes
endheader
time		1_ground_force_vx		1_ground_force_vy		1_ground_force_vz		1_ground_force_px		1_ground_force_py		1_ground_force_pz		1_ground_torque_x		1_ground_torque_y		1_ground_torque_z		2_ground_force_vx		2_ground_force_vy		2_ground_force_vz		2_ground_force_px		2_ground_force_py		2_ground_force_pz		2_ground_torque_x		2_ground_torque_y		2_ground_torque_z		3_ground_force_vx		3_ground_force_vy		3_ground_force_vz		3_ground_force_px		3_ground_force_py		3_ground_force_pz		3_ground_torque_x		3_ground_torque_y		3_ground_torque_z		4_ground_force_vx		4_ground_force_vy		4_ground_force_vz		4_ground_force_px		4_ground_force_py		4_ground_force_pz		4_ground_torque_x		4_ground_torque_y		4_ground_torque_z		
0.260333		0.129906		0.117518		0.853219		0.084058		0.000000		0.275655		-0.044385		-0.058803		-0.024475		0.000000		0.000000		0.000000		-0.193221		0.000000		0.305417		0.000000		-0.000000		0.000000		-2.521614		337.550757		-103.383828		0.380216		1.275211		1.888433		0.147628		-19.761087		6.052321		30.884297		423.967755		-65.514922		-0.351536		1.267661		1.877318		1.938456		26.610378		-4.112049		
0.263641		0.115076		0.087584		0.778804		0.084058		0.000000		0.275655		-0.054174		-0.049620		-0.020665		0.000000		0.000000		0.000000		-0.193221		0.000000		0.305417		0.000000		-0.000000		0.000000		-1.012509		318.122640		-104.165599		0.380241		1.275214		1.888469		0.058247		-18.298143		5.991481		29.024717		403.579270		-68.718189		-0.351508		1.267700		1.877421		1.819672		25.301945		-4.308206		
0.266949		0.080558		0.050657		0.558693		0.084058		0.000000		0.275655		-0.047588		-0.033167		-0.013821		-0.000000		-0.000000		0.000000		-0.193221		0.000000		0.305417		-0.000000		0.000000		-0.000000		0.754189		296.702468		-103.747502		0.380245		1.275217		1.888498		0.933088		-32.399426		-38.982234		27.291990		380.878097		-71.319361		-0.351489		1.267737		1.877500		1.707590		23.830556		-4.462265		
0.270258		0.040287		0.017609		0.288298		0.084058		0.000000		0.275655		-0.030861		-0.015465		-0.006451		-0.000000		-0.000000		-0.000000		-0.193221		0.000000		0.305417		-0.000000		0.000000		-0.000000		2.726787		273.350953		-102.095690		0.380224		1.275235		1.888531		0.911017		-30.492825		-35.702544		25.724210		356.076849		-73.108826		-0.351479		1.267775		1.877551		1.604392		22.208143		-4.559712		
0.273566		0.006945		-0.004566		0.057857		0.084058		0.000000		0.275655		-0.012304		-0.001573		-0.000664		-0.000000		-0.000000		-0.000000		-0.193221		0.000000		0.305417		-0.000000		0.000000		-0.000000		4.833959		248.330096		-99.195965		0.380185		1.275275		1.888566		0.879199		-28.321742		-32.225920		24.308373		329.476507		-73.917718		-0.351474		1.267818		1.877574		1.508942		20.452259		-4.588438		
0.276874		-0.012699		-0.014164		-0.082005		0.084058		0.000000		0.275655		0.001792		0.006106		0.002538		-0.000000		-0.000000		-0.000000		-0.193221		0.000000		0.305417		-0.000000		0.000000		-0.000000		7.014285		222.040808		-94.992689		0.380147		1.275329		1.888583		0.848007		-25.910844		-28.611300		22.979980		301.369207		-73.624216		-0.351466		1.267869		1.877574		1.416985		18.582971		-4.539790		
0.280182		-0.018537		-0.013907		-0.127059		0.084058		0.000000		0.275655		0.008829		0.007939		0.003306		-0.000000		-0.000000		-0.000000		-0.193221		0.000000		0.305417		-0.000000		0.000000		-0.000000		9.196084		195.006058		-89.415070		0.380126		1.275387		1.888559		-0.459668		-9.748196		4.469721		21.626706		272.066958		-72.174099		-0.351453		1.267930		1.877548		1.321682		16.626983		-4.410798		
0.283490		-0.014823		-0.008429		-0.104623		0.084058		0.000000		0.275655		0.009524		0.005959		0.002484		0.000000		0.000000		-0.000000		-0.193221		0.000000		0.305417		0.000000		-0.000000		0.000000		11.299537		167.798872		-82.383850		0.380142		1.275438		1.888460		-0.540447		-8.025741		3.940375		20.110752		241.910938		-69.559863		-0.351432		1.268002		1.877492		1.215195		14.617507		-4.203164		
0.286798		-0.007118		-0.002070		-0.052498		0.084058		0.000000		0.275655		0.006383		0.002574		0.001074		0.000000		0.000000		0.000000		-0.193221		0.000000		0.305417		0.000000		-0.000000		0.000000		13.217964		141.001953		-73.872706		0.380188		1.275478		1.888283		-0.599987		-6.400977		3.353486		18.291199		211.300556		-65.790908		-0.351405		1.268083		1.877404		1.090220		12.594299		-3.921357		
0.290106		0.000009		0.002427		-0.002711		0.084058		0.000000		0.275655		0.002209		-0.000356		-0.000146		0.000000		0.000000		0.000000		-0.193221		0.000000		0.305417		0.000000		-0.000000		0.000000		14.837020		115.162880		-64.047432		0.380257		1.275509		1.888025		-0.632318		-4.908373		2.729734		16.065393		180.707323		-60.912636		-0.351376		1.268170		1.877282		0.942498		10.601444		-3.573506		
0.293414		0.004183		0.004178		0.027456		0.084058		0.000000		0.275655		-0.001044		-0.001943		-0.000808		0.000000		0.000000		0.000000		-0.193221		0.000000		0.305417		0.000000		-0.000000		0.000000		16.035522		90.802244		-53.292263		0.380333		1.275537		1.887688		-0.630690		-3.571662		2.096193		13.397550		150.643550		-54.981761		-0.351349		1.268257		1.877125		0.772218		8.682899		-3.169062		
0.296722		0.005102		0.003677		0.035112		0.084058		0.000000		0.275655		-0.002569		-0.002164		-0.000901		0.000000		0.000000		0.000000		-0.193221		0.000000		0.305417		0.000000		-0.000000		0.000000		16.693206		68.409559		-42.254155		0.380401		1.275571		1.887309		-0.586583		-2.404468		1.485094		10.349484		121.660347		-48.114178		-0.351324		1.268336		1.876944		0.585222		6.879346		-2.720616		
0.300030		0.003787		0.002043		0.026848		0.084058		0.000000		0.275655		-0.002533		-0.001507		-0.000628		-0.000000		-0.000000		0.000000		-0.193221		0.000000		0.305417		-0.000000		0.000000		-0.000000		16.730645		48.462081		-31.709886		0.380452		1.275609		1.886913		-0.489579		-1.418282		0.927996		7.085762		94.362024		-40.494192		-0.351302		1.268402		1.876743		0.392518		5.227193		-2.243175		
0.303338		0.001632		0.000336		0.012203		0.084058		0.000000		0.275655		-0.001590		-0.000570		-0.000238		-0.000000		-0.000000		-0.000000		-0.193221		0.000000		0.305417		-0.000000		0.000000		-0.000000		16.126966		31.470615		-22.427658		0.380489		1.275649		1.886530		-0.326918		-0.638715		0.455043		3.845161		69.464550		-32.388399		-0.351279		1.268447		1.876521		1.545506		8.265144		8.061256		
0.306646		-0.000228		-0.000794		-0.000847		0.084058		0.000000		0.275655		-0.000460		0.000188		0.000078		-0.000000		-0.000000		-0.000000		-0.193221		0.000000		0.305417		-0.000000		0.000000		-0.000000		14.976961		17.853528		-14.971717		0.380520		1.275685		1.886180		-0.098493		-0.118177		0.098838		0.892947		47.698346		-24.191549		-0.351253		1.268473		1.876283		1.091910		5.898182		5.434709		
0.309955		-0.001245		-0.001175		-0.008242		0.084058		0.000000		0.275655		0.000373		0.000568		0.000237		-0.000000		-0.000000		-0.000000		-0.193221		0.000000		0.305417		-0.000000		0.000000		-0.000000		13.488643		7.865227		-9.619039		0.380556		1.275714		1.885875		0.117710		0.068463		-0.083864		-1.546944		29.719513		-16.425328		-0.351220		1.268483		1.876026		0.702229		3.840664		3.329045		
0.313263		-0.001392		-0.000975		-0.009610		0.084058		0.000000		0.275655		0.000728		0.000587		0.000244		0.000000		-0.000000		-0.000000		-0.193221		0.000000		0.305417		-0.000000		0.000000		-0.000000		11.946866		1.447502		-6.332559		0.380609		1.275734		1.885625		0.113322		0.014006		-0.060162		-3.342258		15.949848		-9.690397		-0.351185		1.268482		1.875749		0.398187		2.179672		1.770644		
0.316571		-0.000978		-0.000506		-0.006959		0.084058		0.000000		0.275655		0.000674		0.000386		0.000161		0.000000		0.000000		0.000000		-0.193221		0.000000		0.305417		0.000000		-0.000000		0.000000		10.623451		-1.891918		-4.760219		0.380678		1.275749		1.885417		-0.063605		0.011417		0.028487		-4.489906		6.388616		-4.492336		-0.351153		1.268480		1.875464		0.186338		0.965758		0.728948		
0.319879		-0.000382		-0.000049		-0.002888		0.084058		0.000000		0.275655		0.000400		0.000129		0.000054		0.000000		0.000000		0.000000		-0.193221		0.000000		0.305417		0.000000		-0.000000		0.000000		9.686936		-2.932481		-4.375649		0.380762		1.275763		1.885241		-0.158385		0.047957		0.071550		-5.087479		0.673498		-1.105535		-0.351132		1.268479		1.875176		0.057150		-0.007455		0.012349		
0.323187		0.000106		0.000237		0.000543		0.084058		0.000000		0.275655		0.000094		-0.000068		-0.000028		0.000000		0.000000		0.000000		-0.193221		0.000000		0.305417		0.000000		-0.000000		0.000000		9.165138		-2.608663		-4.585936		0.380850		1.275771		1.885085		-0.140182		0.039918		0.070128		-5.301592		-1.948646		0.557257		-0.351124		1.268480		1.874892		-0.042589		-0.015777		0.004559		
0.326495		0.000355		0.000320		0.002366		0.084058		0.000000		0.275655		-0.000120		-0.000160		-0.000067		0.000000		0.000000		0.000000		-0.193221		0.000000		0.305417		0.000000		-0.000000		0.000000		8.984938		-1.751732		-4.902797		0.380929		1.275769		1.884928		-0.074128		0.014453		0.040449		-5.311661		-2.438920		0.896461		-0.351128		1.268476		1.874605		-0.085367		-0.039197		0.014407		
0.329803		0.000372		0.000253		0.002577		0.084058		0.000000		0.275655		-0.000201		-0.000155		-0.000065		-0.000000		0.000000		0.000000		-0.193221		0.000000		0.305417		0.000000		-0.000000		0.000000		9.043276		-0.937723		-5.039685		0.380984		1.275753		1.884755		-0.017089		0.001790		0.009526		-5.271818		-1.761137		0.468318		-0.351135		1.268460		1.874309		-0.054080		-0.018118		0.004837		
0.333111		0.000248		0.000122		0.001773		0.084058		0.000000		0.275655		-0.000177		-0.000097		-0.000040		-0.000000		-0.000000		-0.000000		-0.193221		0.000000		0.305417		-0.000000		0.000000		-0.000000		9.252032		-0.438986		-4.938366		0.381002		1.275721		1.884551		0.010004		-0.000474		-0.005338		-5.286724		-0.727057		-0.175868		-0.351135		1.268425		1.873984		0.000325		0.000010		0.000031		
0.336419		0.000086		0.000001		0.000660		0.084058		0.000000		0.275655		-0.000099		-0.000028		-0.000012		-0.000000		-0.000000		-0.000000		-0.193221		0.000000		0.305417		-0.000000		0.000000		-0.000000		9.556436		-0.287045		-4.704298		0.380983		1.275684		1.884317		0.011233		-0.000337		-0.005530		-5.396728		0.144782		-0.647898		-0.351121		1.268375		1.873631		0.031187		-0.000843		0.003747		
0.339727		-0.000040		-0.000070		-0.000231		0.084058		0.000000		0.275655		-0.000017		0.000023		0.000010		-0.000000		-0.000000		-0.000000		-0.193221		0.000000		0.305417		-0.000000		0.000000		-0.000000		9.912548		-0.383197		-4.502240		0.380939		1.275655		1.884061		-0.002206		0.000087		0.000999		-5.579674		0.621736		-0.769043		-0.351095		1.268317		1.873253		0.038348		-0.004273		0.005285		
